{"title":"The Hunger Games Catching Fire 2013 BRRip XViD NO1KNOWS [P2PDL]","uid":9498183,"size":1508936949,"categoryP":"video","categoryS":"movies","magnet":"?xt=urn:btih:210e0c64028f66e1e8bbe73aa99716fbc351717d&amp;dn=The+Hunger+Games+Catching+Fire+2013+BRRip+XViD+NO1KNOWS+%5BP2PDL%5D&amp;tr=udp%3A%2F%2Ftracker.openbittorrent.com%3A80&amp;tr=udp%3A%2F%2Fopen.demonii.com%3A1337&amp;tr=udp%3A%2F%2Ftracker.coppersurfer.tk%3A6969&amp;tr=udp%3A%2F%2Fexodus.desync.com%3A6969","seeders":2,"leechers":0,"uploader":"ValidusVyto","files":4,"time":1390159279,"description":"The.Hunger.Games.Catching.Fire.2013.BRRip.XViD.NO1KNOWS\n\nInfo:\nGeneral\nComplete name                            : The.Hunger.Games.Catching.Fire.2013.BRRip.XViD.NO1KNOWS.[P2PDL]/The.Hunger.Games.Catching.Fire.2013 BRRip XViD NO1KNOWS/The.Hunger.Games.Catching.Fire.2013 BRRip XViD NO1KNOWS.avi\nFormat                                   : AVI\nFormat/Info                              : Audio Video Interleave\nFile size                                : 1.39 GiB\nDuration                                 : 2h 26mn\nOverall bit rate                         : 1 362 Kbps\nWriting library                          : VirtualDub build 35491/release\n\nVideo\nID                                       : 0\nFormat                                   : MPEG-4 Visual\nFormat profile                           : Advanced Simple@L5\nFormat settings, BVOP                    : 2\nFormat settings, QPel                    : No\nFormat settings, GMC                     : No warppoints\nFormat settings, Matrix                  : Default (H.263)\nMuxing mode                              : Packed bitstream\nCodec ID                                 : XVID\nCodec ID/Hint                            : XviD\nDuration                                 : 2h 26mn\nBit rate                                 : 1 128 Kbps\nWidth                                    : 720 pixels\nHeight                                   : 304 pixels\nDisplay aspect ratio                     : 2.35:1\nFrame rate                               : 23.976 fps\nColor space                              : YUV\nChroma subsampling                       : 4:2:0\nBit depth                                : 8 bits\nScan type                                : Progressive\nCompression mode                         : Lossy\nBits/(Pixel*Frame)                       : 0.215\nStream size                              : 1.15 GiB (83%)\nWriting library                          : XviD 64\n\nAudio\nID                                       : 1\nFormat                                   : AC-3\nFormat/Info                              : Audio Coding 3\nMode extension                           : CM (complete main)\nCodec ID                                 : 2000\nDuration                                 : 2h 26mn\nBit rate mode                            : Constant\nBit rate                                 : 224 Kbps\nChannel(s)                               : 6 channels\nChannel positions                        : Front: L C R, Side: L R, LFE\nSampling rate                            : 48.0 KHz\nBit depth                                : 16 bits\nCompression mode                         : Lossy\nStream size                              : 234 MiB (16%)\nAlignment                                : Aligned on interleaves\nInterleave, duration                     : 42 ms (1.00 video frame)\nInterleave, preload duration             : 512 ms\n\n\n\n\nScreenshots:\nhttp://beeimg.com/images/o37018344901.jpg\nhttp://beeimg.com/images/g95321420101.jpg","torrent":{"xt":"urn:btih:210e0c64028f66e1e8bbe73aa99716fbc351717d","amp;dn":"The+Hunger+Games+Catching+Fire+2013+BRRip+XViD+NO1KNOWS+%5BP2PDL%5D","amp;tr":["udp%3A%2F%2Ftracker.openbittorrent.com%3A80","udp%3A%2F%2Fopen.demonii.com%3A1337","udp%3A%2F%2Ftracker.coppersurfer.tk%3A6969","udp%3A%2F%2Fexodus.desync.com%3A6969"],"infoHash":"210e0c64028f66e1e8bbe73aa99716fbc351717d","infoHashBuffer":{"type":"Buffer","data":[33,14,12,100,2,143,102,225,232,187,231,58,169,151,22,251,195,81,113,125]},"announce":[],"urlList":[]}}